<svg width="21" height="21" viewBox="0 0 21 21" fill="none" xmlns="http://www.w3.org/2000/svg">
<circle cx="10.5" cy="9.99243" r="8.5" fill="#B22825"/>
<path d="M5.84014 11.3304L12.1651 11.3351L9.41308 14.0747C9.25604 14.2315 9.16772 14.4443 9.16756 14.6662C9.16739 14.8881 9.25538 15.101 9.41219 15.258C9.56899 15.4151 9.78175 15.5034 10.0037 15.5036C10.2256 15.5037 10.4385 15.4157 10.5955 15.2589L14.7653 11.0954C14.8412 11.0162 14.9008 10.9228 14.9405 10.8205C15.024 10.6177 15.0242 10.3901 14.941 10.1872C14.9014 10.0849 14.842 9.99138 14.7662 9.91207L10.6027 5.74227C10.5253 5.66411 10.4331 5.60204 10.3316 5.55966C10.2301 5.51727 10.1212 5.49541 10.0112 5.49533C9.90119 5.49524 9.79225 5.51694 9.69067 5.55917C9.58909 5.6014 9.49688 5.66333 9.41935 5.74138C9.34118 5.81879 9.27912 5.91091 9.23673 6.01243C9.19435 6.11395 9.17249 6.22285 9.1724 6.33286C9.17232 6.44287 9.19402 6.55181 9.23625 6.65339C9.27848 6.75497 9.34041 6.84718 9.41846 6.92471L12.1664 9.66845L5.8414 9.66369C5.62038 9.66352 5.40835 9.75116 5.25196 9.90732C5.09556 10.0635 5.0076 10.2754 5.00744 10.4964C5.00727 10.7174 5.09491 10.9294 5.25107 11.0858C5.40723 11.2422 5.61913 11.3302 5.84014 11.3304Z" fill="#FFFEFE"/>
</svg>
