<svg width="17" height="18" viewBox="0 0 17 18" fill="none" xmlns="http://www.w3.org/2000/svg">
<circle cx="8.5" cy="9" r="8.5" fill="white"/>
<path d="M4.34063 9.82303L10.6656 9.82779L7.91356 12.5674C7.75653 12.7242 7.66821 12.937 7.66804 13.1589C7.66788 13.3808 7.75587 13.5937 7.91267 13.7507C8.06948 13.9078 8.28224 13.9961 8.50416 13.9962C8.72607 13.9964 8.93897 13.9084 9.09601 13.7516L13.2658 9.58808C13.3417 9.50888 13.4013 9.41547 13.441 9.31321C13.5245 9.11039 13.5247 8.88282 13.4415 8.67988C13.4019 8.57756 13.3425 8.48406 13.2667 8.40475L9.10317 4.23495C9.02576 4.15678 8.93364 4.09472 8.83212 4.05233C8.7306 4.00995 8.6217 3.98808 8.51169 3.988C8.40168 3.98792 8.29274 4.00962 8.19116 4.05185C8.08958 4.09408 7.99736 4.15601 7.91984 4.23406C7.84167 4.31147 7.77961 4.40359 7.73722 4.5051C7.69484 4.60662 7.67297 4.71553 7.67289 4.82554C7.67281 4.93555 7.69451 5.04448 7.73674 5.14606C7.77897 5.24765 7.8409 5.33986 7.91895 5.41739L10.6669 8.16112L4.34188 8.15636C4.12087 8.1562 3.90884 8.24384 3.75244 8.4C3.59605 8.55616 3.50809 8.76806 3.50792 8.98907C3.50776 9.21008 3.59539 9.42211 3.75156 9.57851C3.90772 9.73491 4.11962 9.82286 4.34063 9.82303Z" fill="#B22825"/>
</svg>
