<svg width="25" height="26" viewBox="0 0 25 26" fill="none" xmlns="http://www.w3.org/2000/svg">
<g clip-path="url(#clip0_101_871)">
<path d="M19.0055 3.88672L18.0055 3.88864L18.0036 2.88864C18.0025 2.28864 17.6017 1.88941 17.0017 1.89057C16.4017 1.89172 16.0025 2.29249 16.0036 2.89249L16.0055 3.89249L8.00555 3.90788L8.00362 2.90789C8.00247 2.30789 7.6017 1.90866 7.0017 1.90981C6.4017 1.91097 6.00247 2.31174 6.00363 2.91173L6.00555 3.91173L5.00555 3.91366C3.30556 3.91693 2.00806 5.21943 2.01133 6.91942L2.03827 20.9194C2.04154 22.6194 3.34404 23.9169 5.04404 23.9136L19.044 23.8867C20.744 23.8834 22.0415 22.5809 22.0382 20.8809L22.0113 6.88094C22.0082 5.28094 20.7055 3.88344 19.0055 3.88672ZM7.03634 19.9098C6.43634 19.9109 6.03557 19.5117 6.03442 18.9117C6.03326 18.3117 6.43249 17.9109 7.03249 17.9098C7.63249 17.9086 8.03326 18.3079 8.03441 18.9079C8.03557 19.5079 7.63634 19.9086 7.03634 19.9098ZM7.02864 15.9098C6.42864 15.9109 6.02787 15.5117 6.02672 14.9117C6.02556 14.3117 6.42479 13.9109 7.02479 13.9098C7.62479 13.9086 8.02556 14.3079 8.02672 14.9079C8.02787 15.5079 7.62864 15.9086 7.02864 15.9098ZM12.0363 19.9002C11.4363 19.9013 11.0356 19.5021 11.0344 18.9021C11.0333 18.3021 11.4325 17.9013 12.0325 17.9002C12.6325 17.899 13.0332 18.2982 13.0344 18.8982C13.0356 19.4982 12.6363 19.899 12.0363 19.9002ZM12.0286 15.9002C11.4286 15.9013 11.0279 15.5021 11.0267 14.9021C11.0256 14.3021 11.4248 13.9013 12.0248 13.9002C12.6248 13.899 13.0256 14.2982 13.0267 14.8982C13.0279 15.4982 12.6286 15.899 12.0286 15.9002ZM17.0363 19.8905C16.4363 19.8917 16.0356 19.4925 16.0344 18.8925C16.0332 18.2925 16.4325 17.8917 17.0325 17.8905C17.6325 17.8894 18.0332 18.2886 18.0344 18.8886C18.0356 19.4886 17.6363 19.8894 17.0363 19.8905ZM17.0286 15.8905C16.4286 15.8917 16.0279 15.4925 16.0267 14.8925C16.0255 14.2925 16.4248 13.8917 17.0248 13.8905C17.6248 13.8894 18.0255 14.2886 18.0267 14.8886C18.0279 15.4886 17.6286 15.8894 17.0286 15.8905ZM20.0171 9.88478L4.0171 9.91557L4.01133 6.91558C4.01017 6.31558 4.4094 5.91481 5.0094 5.91365L6.0094 5.91173L6.01132 6.91173C6.01248 7.51173 6.41325 7.91095 7.01325 7.9098C7.61325 7.90865 8.01248 7.50788 8.01132 6.90788L8.0094 5.90788L16.0094 5.89248L16.0113 6.89248C16.0125 7.49248 16.4132 7.89171 17.0132 7.89056C17.6132 7.8894 18.0125 7.48863 18.0113 6.88863L18.0094 5.88864L19.0094 5.88671C19.6094 5.88556 20.0101 6.28479 20.0113 6.88479L20.0171 9.88478Z" fill="#B22825"/>
</g>
<defs>
<clipPath id="clip0_101_871">
<rect width="24" height="24" fill="white" transform="translate(0 1.02319) rotate(-0.110257)"/>
</clipPath>
</defs>
</svg>
