<svg width="452" height="548" viewBox="0 0 452 548" fill="none" xmlns="http://www.w3.org/2000/svg">
<line y1="432.23" x2="452" y2="432.23" stroke="#B22825" stroke-width="14"/>
<path d="M80.0129 534.629C75.7836 534.629 71.8316 534.282 68.1569 533.589C64.4822 532.826 61.2582 531.543 58.4849 529.741C55.7809 527.869 53.6662 525.303 52.1409 522.045C50.6849 518.717 49.9569 514.487 49.9569 509.357V457.149H65.3489V509.253C65.3489 512.095 65.9036 514.349 67.0129 516.013C68.1916 517.677 69.8556 518.89 72.0049 519.653C74.2236 520.415 76.8929 520.797 80.0129 520.797C83.0636 520.797 85.6636 520.415 87.8129 519.653C90.0316 518.89 91.6956 517.677 92.8049 516.013C93.9836 514.349 94.5729 512.095 94.5729 509.253V457.149H110.069V509.357C110.069 514.487 109.306 518.717 107.781 522.045C106.256 525.303 104.141 527.869 101.437 529.741C98.7329 531.543 95.5436 532.826 91.8689 533.589C88.2636 534.282 84.3116 534.629 80.0129 534.629ZM179.598 534.733C174.328 534.733 169.718 534.247 165.766 533.277C161.814 532.237 158.486 530.365 155.782 527.661C153.147 524.887 151.171 520.935 149.854 515.805C148.536 510.674 147.878 503.983 147.878 495.733C147.878 487.482 148.536 480.791 149.854 475.661C151.24 470.461 153.251 466.474 155.886 463.701C158.52 460.927 161.814 459.021 165.766 457.981C169.718 456.941 174.328 456.421 179.598 456.421C184.867 456.421 189.478 456.941 193.43 457.981C197.382 459.021 200.675 460.927 203.31 463.701C205.944 466.474 207.92 470.461 209.238 475.661C210.555 480.791 211.214 487.482 211.214 495.733C211.214 503.983 210.555 510.674 209.238 515.805C207.92 520.935 205.944 524.887 203.31 527.661C200.675 530.365 197.382 532.237 193.43 533.277C189.478 534.247 184.867 534.733 179.598 534.733ZM179.598 520.901C182.718 520.901 185.318 520.554 187.398 519.861C189.478 519.167 191.107 517.954 192.286 516.221C193.534 514.418 194.435 511.887 194.99 508.629C195.544 505.301 195.822 501.002 195.822 495.733C195.822 490.186 195.544 485.749 194.99 482.421C194.435 479.093 193.534 476.562 192.286 474.829C191.107 473.026 189.478 471.813 187.398 471.189C185.318 470.565 182.718 470.253 179.598 470.253C176.616 470.253 174.086 470.565 172.006 471.189C169.926 471.813 168.227 473.026 166.91 474.829C165.662 476.562 164.726 479.093 164.102 482.421C163.547 485.749 163.27 490.186 163.27 495.733C163.27 501.002 163.512 505.301 163.998 508.629C164.552 511.887 165.454 514.418 166.702 516.221C167.95 517.954 169.614 519.167 171.694 519.861C173.843 520.554 176.478 520.901 179.598 520.901ZM250.133 534.109V457.149H280.397C288.023 457.149 293.57 458.917 297.037 462.453C300.573 465.919 302.341 470.877 302.341 477.325C302.341 480.375 301.89 483.079 300.989 485.437C300.157 487.725 298.943 489.631 297.349 491.157C295.754 492.613 293.847 493.618 291.629 494.173C293.293 494.589 294.887 495.247 296.413 496.149C298.007 497.05 299.429 498.263 300.677 499.789C301.994 501.314 302.999 503.186 303.693 505.405C304.455 507.554 304.837 510.05 304.837 512.893C304.837 518.093 303.935 522.253 302.133 525.373C300.399 528.493 297.799 530.746 294.333 532.133C290.935 533.45 286.741 534.109 281.749 534.109H250.133ZM265.525 520.277H281.333C283.135 520.277 284.695 519.93 286.013 519.237C287.33 518.543 288.335 517.469 289.029 516.013C289.791 514.557 290.173 512.615 290.173 510.189C290.173 508.178 289.791 506.479 289.029 505.093C288.266 503.706 287.226 502.631 285.909 501.869C284.591 501.106 283.066 500.725 281.333 500.725H265.525V520.277ZM265.525 488.869H280.501C282.719 488.869 284.453 488.071 285.701 486.477C287.018 484.813 287.677 482.663 287.677 480.029C287.746 476.631 287.053 474.274 285.597 472.957C284.141 471.639 282.373 470.981 280.293 470.981H265.525V488.869ZM342.896 534.109V457.149H375.448C380.648 457.149 384.981 458.085 388.448 459.957C391.914 461.759 394.653 464.394 396.664 467.861C398.744 471.258 400.2 475.314 401.032 480.029C401.864 484.743 402.28 489.943 402.28 495.629C402.28 504.295 401.274 511.471 399.264 517.157C397.322 522.842 394.376 527.106 390.424 529.949C386.472 532.722 381.48 534.109 375.448 534.109H342.896ZM358.288 520.277H373.888C377.077 520.277 379.608 519.375 381.48 517.573C383.352 515.701 384.704 512.927 385.536 509.253C386.437 505.578 386.888 501.037 386.888 495.629C386.888 490.637 386.61 486.546 386.056 483.357C385.501 480.098 384.669 477.567 383.56 475.765C382.52 473.962 381.168 472.714 379.504 472.021C377.909 471.327 376.037 470.981 373.888 470.981H358.288V520.277Z" fill="#B22825"/>
<rect x="220.179" y="10" width="187" height="411.5" fill="#B22825" stroke="white" stroke-width="2"/>
<rect x="52.7472" y="116.5" width="158" height="305" fill="#B22825" stroke="white" stroke-width="2"/>
<rect x="44.7472" y="107.5" width="171" height="9" fill="#B22825" stroke="white" stroke-width="2"/>
<rect x="239.68" y="1" width="148" height="9" fill="#B22825" stroke="white" stroke-width="2"/>
<rect x="257.68" y="36" width="24" height="24" fill="white"/>
<rect x="301.68" y="36" width="24" height="24" fill="white"/>
<rect x="345.68" y="36" width="24" height="24" fill="white"/>
<rect x="257.68" y="87" width="24" height="24" fill="white"/>
<rect x="301.68" y="87" width="24" height="24" fill="white"/>
<rect x="345.68" y="87" width="24" height="24" fill="white"/>
<rect x="257.68" y="138" width="24" height="24" fill="white"/>
<rect x="301.68" y="138" width="24" height="24" fill="white"/>
<rect x="345.68" y="138" width="24" height="24" fill="white"/>
<rect x="257.68" y="189" width="24" height="24" fill="white"/>
<rect x="301.68" y="189" width="24" height="24" fill="white"/>
<rect x="345.68" y="189" width="24" height="24" fill="white"/>
<rect x="257.68" y="240" width="24" height="24" fill="white"/>
<rect x="301.68" y="240" width="24" height="24" fill="white"/>
<rect x="345.68" y="240" width="24" height="24" fill="white"/>
<rect x="176.179" y="172.5" width="157" height="249" fill="white" stroke="white" stroke-width="2"/>
<rect x="199.18" y="197" width="48.449" height="32" fill="#B22825"/>
<rect x="261.731" y="197" width="48.449" height="32" fill="#B22825"/>
<rect x="199.18" y="239" width="48.45" height="32" fill="#B22825"/>
<rect x="261.73" y="239" width="48.45" height="32" fill="#B22825"/>
<rect x="199.18" y="281" width="48.449" height="32" fill="#B22825"/>
<rect x="261.731" y="281" width="48.449" height="32" fill="#B22825"/>
<rect x="230.45" y="353.848" width="48.449" height="66.7814" fill="#B22825"/>
<rect x="71.7472" y="129.5" width="17.199" height="35.8673" fill="white"/>
<rect x="71.7472" y="175.367" width="17.199" height="35.8673" fill="white"/>
<rect x="71.7472" y="221.235" width="17.199" height="35.8673" fill="white"/>
<rect x="71.7472" y="267.102" width="17.199" height="35.8673" fill="white"/>
<rect x="71.7472" y="312.969" width="17.199" height="35.8673" fill="white"/>
</svg>
